# Blender v3.0.0 OBJ File: 'untitled.blend'
# www.blender.org
mtllib chapeau_Low_poly2.mtl
o Icosphere
v -0.682323 4.435501 -1.073369
v -0.320196 4.689157 -0.990005
v 0.027969 4.949643 -0.779861
v -0.673635 5.050176 -0.185368
v -1.273775 4.762300 0.127825
v 0.183774 5.129812 -0.427382
v -1.234100 4.804313 0.195107
v 0.243214 5.191763 -0.006496
v -1.103980 4.761120 -0.316427
v -1.432919 5.072145 -0.174152
v 0.178446 5.059330 0.366508
v -1.317663 4.942708 0.223576
v 0.027535 4.948007 0.700689
v -0.251191 4.704820 0.944113
v -0.659581 4.448176 1.074729
v -1.047858 4.197362 0.979479
v -1.391906 4.012137 0.762346
v -1.588034 3.820683 0.407729
v -1.653509 3.744237 -0.012776
v -1.603570 3.799179 -0.405612
v -1.394277 3.958869 -0.763836
v -1.105130 4.146778 -0.975249
v -0.380473 4.863733 0.108801
v -0.300539 4.867489 0.212754
v -0.292377 4.846442 -0.198588
v -0.346269 4.873207 -0.045301
v -0.715709 4.615151 0.500405
v -0.705825 4.571836 0.571106
v -0.489253 4.752235 0.402103
v -0.572073 4.700742 0.428989
v -1.187370 4.393624 0.229297
v -1.260729 4.301879 0.174471
v -1.018493 4.385684 0.465989
v -1.101327 4.427878 0.340663
v -1.088850 4.410190 -0.305164
v -1.057002 4.370950 -0.440046
v -1.212348 4.238469 -0.150133
v -1.165504 4.347773 -0.194147
v -0.534099 4.659387 -0.535483
v -0.429258 4.676047 -0.565165
v -0.754917 4.507568 -0.607657
v -0.694138 4.554714 -0.565171
v -1.356453 5.141254 -0.250002
v -1.336145 4.913354 0.189126
v -0.873492 4.795549 -0.397747
v -0.805880 4.922774 -0.400047
v -1.170027 4.539111 -0.174191
v -1.159944 4.697462 -0.240034
v -1.271858 4.733057 -0.145955
v -1.047769 5.096336 -0.331071
v -1.079276 5.003332 -0.366716
v -0.891566 5.195745 -0.164737
v -1.288756 4.718026 -0.058824
v -1.293596 4.735820 0.035089
v -1.184067 4.827444 0.243376
v -1.374764 4.892727 0.140121
v -0.741330 5.024285 0.086474
v -1.107637 4.580595 -0.233217
v -1.167700 4.667458 0.233336
v -1.219823 4.634653 0.160767
v -0.810905 5.157200 -0.042419
v -1.044318 4.912173 0.306622
v -1.410681 4.864892 0.038693
v -0.632715 4.912922 0.184265
v -0.687893 4.845601 0.293987
v -0.992952 4.702373 0.347668
v -1.425397 4.869967 -0.063582
v -1.091694 4.695134 0.296534
v -1.257974 4.627208 0.032995
v -1.124081 5.362858 -0.110278
v -1.264280 5.204617 -0.276907
v -1.117385 4.863092 0.285375
v -1.216495 5.262531 -0.242603
v -0.939420 4.951860 0.294340
v -0.881799 4.998050 0.257805
v -1.448236 4.973344 -0.127884
v -0.774141 4.992521 0.172153
v -1.236660 4.573252 -0.053032
v -1.028679 4.641512 -0.307742
v -0.946296 4.702971 -0.359979
v -0.704866 4.987364 -0.333027
v -0.806403 4.822178 0.335773
v -0.896883 4.764745 0.359502
v -0.595593 4.970403 -0.035092
v -0.993457 5.154872 -0.276235
v -0.620148 4.948531 0.092753
v -1.079565 4.864443 -0.365827
v -0.352314 4.851929 -0.269278
v -0.305959 4.822208 -0.373524
v -0.408600 4.763680 -0.449173
v -0.867570 4.524970 -0.488149
v -0.910812 4.455520 -0.548713
v -0.988877 4.475039 -0.408001
v -1.211328 4.316407 -0.073954
v -1.261555 4.256568 -0.009525
v -1.241046 4.354880 0.051322
v -1.010269 4.493139 0.401506
v -0.871858 4.467246 0.542233
v -0.865769 4.552863 0.467299
v -0.524727 4.785860 0.328746
v -0.427344 4.809997 0.338912
v -0.433496 4.839858 0.213345
v -0.596388 4.594885 -0.636704
v -1.160912 4.299653 -0.279177
v -1.155653 4.303026 0.353156
v -0.584330 4.660432 0.499928
v -0.253390 4.885085 -0.006294
v -0.063841 4.731362 -0.245617
v -0.058100 4.783050 -0.013037
v -0.129912 4.673798 -0.447800
v -0.684500 4.264295 -0.675468
v -0.845280 4.168321 -0.609927
v -1.208032 3.936898 0.055391
v -1.201730 3.929990 -0.122139
v -0.769058 4.265020 0.603680
v -0.595559 4.381558 0.636364
v -0.065758 4.765787 0.205197
v -0.898626 4.178495 0.557572
v -1.177982 3.985813 0.227173
v -1.073985 4.069257 0.443852
v -1.160070 3.957851 -0.285035
v -1.016762 4.025821 -0.472692
v -0.296732 4.527533 -0.662235
v -0.489153 4.365031 -0.691610
v -0.283701 4.614703 0.541310
v -0.145843 4.704472 0.395927
v -0.405407 4.497679 0.628781
v 0.205273 5.121890 -0.019801
v 0.049421 4.878127 0.581205
v 0.128793 4.962826 0.332315
v -0.607961 4.426062 -0.960241
v -0.298658 4.589463 -0.905084
v 0.006750 4.786793 -0.725367
v 0.166494 4.972821 -0.410287
v -1.032980 4.093958 0.855887
v -1.291423 3.971030 0.689528
v -1.472419 3.826734 0.375535
v -1.532086 3.758870 0.069466
v -0.030525 4.784768 0.733411
v -0.244393 4.604420 0.880952
v -0.631038 4.378246 0.998823
v -0.918700 4.188562 0.940388
v -1.348582 3.898567 -0.669385
v -0.773077 4.344783 -0.973625
v -1.473984 3.804730 -0.366617
v -1.515928 3.756643 -0.058859
v -1.083961 4.066351 -0.848299
v -1.180932 5.358050 0.050669
v -1.160009 5.382133 -0.019044
v -1.275421 5.133171 0.293167
v -1.294987 5.047326 0.281049
v -1.246206 5.207840 0.277492
v -1.230062 5.287917 0.193609
v -1.194155 5.324491 0.114682
v -1.168741 5.286260 -0.199787
v -1.307745 5.178912 -0.273304
v -1.300906 5.297796 -0.224043
v -1.243429 5.382276 -0.137743
v -1.383604 5.273173 -0.175230
v -1.285297 5.383888 -0.029599
v -1.428352 5.196134 -0.107878
v -1.325779 5.321895 0.064181
v -1.480046 5.116079 -0.029767
v -1.356386 5.270852 0.154571
v -1.489522 4.985901 0.071345
v -1.367344 5.188343 0.238111
v -1.393130 5.102688 0.211342
v -1.440867 5.034763 0.136821
vt 0.974620 0.655675
vt 0.949341 0.701207
vt 0.905975 0.679343
vt 0.908341 0.631197
vt 0.731309 0.068894
vt 0.755215 0.111964
vt 0.715738 0.130256
vt 0.698474 0.100411
vt 0.838345 0.617206
vt 0.848869 0.658219
vt 0.776795 0.627306
vt 0.780438 0.602039
vt 0.851755 0.701111
vt 0.770494 0.657934
vt 0.776392 0.144325
vt 0.726389 0.153679
vt 0.858496 0.430457
vt 0.843140 0.482247
vt 0.786565 0.468435
vt 0.783649 0.422732
vt 0.785330 0.832360
vt 0.756844 0.875360
vt 0.717077 0.854547
vt 0.742375 0.806086
vt 0.849146 0.292040
vt 0.882420 0.331819
vt 0.776935 0.358684
vt 0.769097 0.319362
vt 0.890374 0.371511
vt 0.780314 0.388747
vt 0.834677 0.542173
vt 0.780007 0.528190
vt 0.804721 0.790667
vt 0.748621 0.755642
vt 0.796592 0.182000
vt 0.816508 0.219235
vt 0.755021 0.238807
vt 0.745208 0.204285
vt 0.838703 0.259425
vt 0.763598 0.271713
vt 0.907760 0.533526
vt 0.899068 0.580549
vt 0.832530 0.580454
vt 0.931309 0.328147
vt 0.934004 0.367190
vt 0.890928 0.724990
vt 0.871238 0.775954
vt 0.842188 0.749088
vt 0.852185 0.811754
vt 0.813816 0.855473
vt 0.884724 0.239817
vt 0.916621 0.275282
vt 0.935655 0.419207
vt 0.902984 0.477396
vt 0.797600 0.033646
vt 0.825446 0.071977
vt 0.787833 0.092521
vt 0.763212 0.054839
vt 0.783046 0.885863
vt 0.753974 0.943939
vt 0.726489 0.921898
vt 0.848120 0.106591
vt 0.813670 0.129798
vt 0.980913 0.366008
vt 0.987332 0.415679
vt 0.988197 0.484007
vt 0.862589 0.201611
vt 0.853135 0.877191
vt 0.822435 0.908338
vt 0.971469 0.328368
vt 0.928141 0.746369
vt 0.905033 0.796614
vt 0.882458 0.148370
vt 0.913936 0.187666
vt 0.841156 0.160363
vt 0.877708 0.840458
vt 0.993399 0.545299
vt 0.053434 0.548668
vt 0.059295 0.514214
vt 0.076967 0.604484
vt 0.044772 0.387116
vt 0.040398 0.486068
vt 0.001311 0.469246
vt 0.005541 0.357928
vt 0.051297 0.437077
vt 0.070173 0.317832
vt 0.031576 0.279728
vt 0.070382 0.364330
vt 0.110801 0.260660
vt 0.150882 0.238128
vt 0.104439 0.294123
vt 0.206499 0.153499
vt 0.152945 0.209178
vt 0.133256 0.153290
vt 0.201860 0.086915
vt 0.778134 0.560871
vt 0.751877 0.711730
vt 0.195328 0.190311
vt 0.246187 0.144820
vt 0.683798 0.904590
vt 0.321989 0.093480
vt 0.347136 0.106285
vt 0.299306 0.117568
vt 0.423791 0.101808
vt 0.370214 0.091276
vt 0.387118 0.028362
vt 0.439375 0.042946
vt 0.390782 0.107477
vt 0.479491 0.124262
vt 0.506287 0.079845
vt 0.446083 0.127303
vt 0.373266 0.849008
vt 0.362642 0.827736
vt 0.405562 0.819208
vt 0.259283 0.841879
vt 0.317429 0.852927
vt 0.318844 0.902902
vt 0.256561 0.891859
vt 0.306900 0.829733
vt 0.943028 0.236701
vt 0.213045 0.815953
vt 0.190148 0.868379
vt 0.255476 0.823494
vt 0.987374 0.599532
vt 0.789625 0.963830
vt 0.954438 0.278939
vt 0.166666 0.779149
vt 0.163096 0.756697
vt 0.199616 0.794788
vt 0.096281 0.699775
vt 0.138627 0.750669
vt 0.085658 0.770868
vt 0.044958 0.704070
vt 0.123833 0.706212
vt 0.065149 0.625048
vt 0.021232 0.630732
vt 0.099721 0.664042
vt 0.082647 0.211530
vt 0.271908 0.112401
vt 0.276049 0.048013
vt 0.330412 0.031753
vt 0.453458 0.798410
vt 0.433555 0.832570
vt 0.437131 0.892179
vt 0.366918 0.904499
vt 0.140262 0.826318
vt 0.005350 0.558822
vt 0.230638 0.591140
vt 0.149197 0.649162
vt 0.113882 0.530512
vt 0.200346 0.536738
vt 0.194407 0.234844
vt 0.177574 0.220627
vt 0.278747 0.156826
vt 0.299427 0.191168
vt 0.103680 0.448397
vt 0.193524 0.483228
vt 0.113413 0.397310
vt 0.198644 0.421315
vt 0.078316 0.410630
vt 0.119624 0.312613
vt 0.145832 0.329004
vt 0.300254 0.668893
vt 0.248984 0.745961
vt 0.209357 0.722204
vt 0.267955 0.637052
vt 0.329030 0.785203
vt 0.314983 0.815779
vt 0.208040 0.757251
vt 0.611427 0.753250
vt 0.631338 0.778694
vt 0.514364 0.828189
vt 0.509148 0.794563
vt 0.621133 0.591269
vt 0.694558 0.661929
vt 0.677806 0.693736
vt 0.593506 0.633754
vt 0.718132 0.693328
vt 0.635712 0.544999
vt 0.729292 0.581639
vt 0.630433 0.475277
vt 0.741505 0.488615
vt 0.605720 0.404619
vt 0.703771 0.396996
vt 0.529390 0.314987
vt 0.595513 0.263636
vt 0.638735 0.292955
vt 0.575586 0.356933
vt 0.509164 0.215367
vt 0.520244 0.182655
vt 0.629556 0.247705
vt 0.405071 0.184653
vt 0.394230 0.141907
vt 0.323854 0.289830
vt 0.382932 0.271353
vt 0.470306 0.273219
vt 0.222156 0.365690
vt 0.265996 0.322829
vt 0.554582 0.667348
vt 0.489758 0.699521
vt 0.355640 0.705747
vt 0.123477 0.659123
vt 0.083991 0.529080
vt 0.723981 0.361579
vt 0.764531 0.466898
vt 0.764531 0.590564
vt 0.518615 0.613627
vt 0.479792 0.616947
vt 0.476892 0.541610
vt 0.530608 0.550798
vt 0.588301 0.526654
vt 0.539582 0.487327
vt 0.594729 0.453514
vt 0.574249 0.563139
vt 0.551940 0.414996
vt 0.499442 0.451567
vt 0.514645 0.393645
vt 0.548164 0.604506
vt 0.428584 0.537968
vt 0.447365 0.434752
vt 0.409326 0.608799
vt 0.480544 0.375665
vt 0.355206 0.619694
vt 0.375659 0.530145
vt 0.403588 0.414199
vt 0.434333 0.355730
vt 0.324470 0.478751
vt 0.335165 0.430386
vt 0.292910 0.623054
vt 0.309985 0.520563
vt 0.357116 0.398374
vt 0.378121 0.334612
vt 0.336918 0.345465
vt 0.256989 0.421677
vt 0.298142 0.368207
vt 0.254634 0.567917
vt 0.246550 0.452034
vt 0.243492 0.494878
vn -0.4527 0.6884 -0.5667
vn -0.5426 0.5226 -0.6576
vn -0.4562 0.0488 -0.8885
vn -0.2615 0.1787 -0.9485
vn -0.7677 -0.4145 0.4887
vn -0.6299 -0.3349 0.7007
vn -0.6072 -0.3985 0.6873
vn -0.6718 -0.4780 0.5658
vn -0.1790 0.1423 -0.9735
vn -0.3464 -0.1418 -0.9273
vn -0.4686 0.1489 -0.8708
vn -0.1824 0.3295 -0.9263
vn -0.4875 -0.2885 -0.8241
vn -0.6654 0.0162 -0.7463
vn -0.5200 -0.2338 0.8216
vn -0.5553 -0.3372 0.7602
vn 0.5751 0.7927 0.2019
vn 0.4846 0.8142 -0.3198
vn 0.3860 0.8566 -0.3424
vn 0.2960 0.9428 0.1536
vn -0.8549 -0.4890 -0.1730
vn -0.8464 -0.4964 0.1927
vn -0.7561 -0.6130 0.2291
vn -0.8313 -0.5255 -0.1813
vn 0.3680 0.6103 0.7015
vn 0.4532 0.7339 0.5059
vn 0.1860 0.8457 0.5002
vn 0.0610 0.7876 0.6132
vn 0.5142 0.7530 0.4106
vn 0.2011 0.8811 0.4281
vn 0.2649 0.6717 -0.6918
vn 0.2409 0.6726 -0.6997
vn -0.7268 -0.4059 -0.5541
vn -0.8497 -0.2532 -0.4624
vn -0.3394 -0.0860 0.9367
vn -0.0873 0.1197 0.9890
vn -0.2380 0.0991 0.9662
vn -0.4276 -0.1698 0.8879
vn 0.1638 0.3977 0.9028
vn -0.0183 0.4950 0.8687
vn 0.2841 0.6994 -0.6558
vn 0.0145 0.4297 -0.9028
vn 0.0715 0.4715 -0.8790
vn 0.3302 0.8116 0.4819
vn 0.4164 0.8461 0.3328
vn -0.6071 -0.0477 -0.7932
vn -0.7094 -0.0733 -0.7010
vn -0.5928 -0.3023 -0.7465
vn -0.8289 -0.1032 -0.5499
vn -0.9465 -0.2010 -0.2524
vn 0.0680 0.5283 0.8463
vn 0.2178 0.7136 0.6658
vn 0.4851 0.8621 0.1467
vn 0.4966 0.8336 -0.2418
vn -0.8705 0.2296 0.4353
vn -0.7381 0.2646 0.6206
vn -0.7238 -0.0302 0.6893
vn -0.8814 -0.1127 0.4588
vn -0.9701 -0.2171 0.1086
vn -0.5976 0.3326 0.7295
vn -0.5646 0.0625 0.8230
vn 0.0696 0.9842 0.1630
vn 0.1659 0.9861 -0.0022
vn 0.2905 0.9296 -0.2266
vn -0.1730 0.3744 0.9110
vn -0.9264 0.1831 -0.3289
vn -0.9878 0.1523 -0.0334
vn 0.0074 0.9444 0.3286
vn -0.7003 0.4364 -0.5649
vn -0.8121 0.3313 -0.4803
vn -0.4567 0.4886 0.7434
vn -0.2784 0.6962 0.6617
vn -0.3996 0.2119 0.8919
vn -0.9013 0.2076 -0.3802
vn 0.0544 0.7809 -0.6223
vn 0.3088 0.9321 -0.1893
vn -0.0129 0.6957 -0.7182
vn 0.1657 0.8857 -0.4336
vn 0.3679 0.7718 -0.5186
vn 0.1273 0.5238 -0.8423
vn -0.1008 0.2798 -0.9548
vn -0.1167 0.2647 -0.9572
vn -0.2077 0.7226 -0.6594
vn -0.3902 0.5076 -0.7682
vn -0.7637 0.2789 -0.5822
vn -0.5698 0.4106 -0.7119
vn -0.5343 0.0568 -0.8434
vn -0.7416 -0.0042 -0.6708
vn 0.1108 0.5791 -0.8077
vn -0.8184 -0.0425 -0.5731
vn -0.9596 0.0897 -0.2666
vn -0.9519 0.1711 0.2541
vn -0.9872 0.0828 -0.1363
vn -0.9876 -0.1568 -0.0087
vn -0.9379 -0.1620 0.3067
vn -0.7890 0.1331 0.5998
vn -0.7489 -0.0380 0.6616
vn -0.6098 0.2444 0.7539
vn -0.2745 0.5249 0.8057
vn -0.4571 0.3406 0.8216
vn -0.3661 0.1224 0.9225
vn -0.1733 0.3015 0.9376
vn -0.2013 0.7911 0.5776
vn -0.1654 0.7222 0.6716
vn -0.0320 0.5608 0.8273
vn -0.0440 0.8366 0.5460
vn -0.1269 0.7815 0.6109
vn 0.1309 0.9536 0.2710
vn -0.0380 0.8854 0.4633
vn 0.2126 0.7988 0.5628
vn 0.3702 0.8802 0.2970
vn 0.2000 0.9787 -0.0465
vn 0.4309 0.9003 -0.0613
vn -0.4555 0.8514 -0.2601
vn -0.3230 0.1404 -0.9359
vn -0.8942 0.2061 -0.3974
vn -0.9009 -0.0227 -0.4334
vn -0.9699 -0.0807 -0.2296
vn -0.5247 0.0713 0.8483
vn 0.0552 0.7108 0.7012
vn 0.4442 0.8580 -0.2580
vn -0.5308 0.8464 -0.0437
vn -0.5325 0.8453 -0.0443
vn -0.5817 0.8124 0.0415
vn -0.5598 0.8285 0.0139
vn -0.8892 0.4575 0.0091
vn -0.9327 0.3592 0.0336
vn -0.9601 0.2176 0.1757
vn -0.8954 0.4366 0.0868
vn -0.7791 0.5309 -0.3335
vn -0.6223 0.7797 0.0692
vn -0.8220 0.5519 -0.1406
vn -0.6539 0.7566 0.0100
vn -0.8807 0.2878 -0.3762
vn -0.9011 0.4215 -0.1015
vn -0.8280 0.5592 -0.0414
vn -0.5273 0.8491 -0.0303
vn -0.5256 0.8502 -0.0296
vn -0.5630 0.8249 -0.0505
vn -0.5594 0.8274 -0.0502
vn -0.2487 0.9102 -0.3311
vn -0.0415 0.8554 -0.5163
vn -0.1309 0.7365 -0.6636
vn -0.0585 0.7862 -0.6152
vn -0.2623 0.9377 -0.2278
vn -0.0523 0.9521 -0.3013
vn -0.4729 0.8811 0.0113
vn -0.2801 0.9594 0.0338
vn -0.2612 0.9580 -0.1185
vn -0.4934 0.8651 -0.0906
vn -0.0705 0.9975 -0.0096
vn -0.4387 0.8963 0.0646
vn -0.2231 0.9599 0.1698
vn -0.4581 0.8787 0.1341
vn -0.2164 0.9259 0.3097
vn -0.5070 0.8265 0.2446
vn -0.3729 0.8433 0.3869
vn -0.4973 0.7998 0.3362
vn -0.4843 0.7577 0.4374
vn -0.4630 0.8006 0.3803
vn -0.4733 0.8196 0.3228
vn -0.6087 0.6481 0.4577
vn -0.5916 0.4879 0.6418
vn -0.4713 0.7539 0.4577
vn -0.7772 0.5292 0.3403
vn -0.8405 0.2580 0.4764
vn -0.7471 0.6587 -0.0892
vn -0.6821 0.7310 0.0222
vn -0.6048 0.7735 0.1895
vn -0.7319 0.6801 0.0422
vn -0.7757 0.6303 -0.0324
vn -0.5021 0.8583 -0.1065
vn -0.4876 0.8715 -0.0515
vn -0.6081 0.3688 -0.7029
vn -0.3716 0.5595 -0.7409
vn -0.3889 0.5505 -0.7388
vn -0.6350 0.3341 -0.6965
vn -0.2069 0.6648 -0.7178
vn -0.3572 0.7974 0.4864
vn -0.0864 0.8603 0.5023
vn -0.0258 0.9681 0.2493
vn -0.7583 0.5296 -0.3801
vn -0.2957 0.6427 -0.7068
vn -0.0926 0.9117 -0.4002
vn -0.4076 0.9053 0.1193
vn -0.8963 0.3954 -0.2011
vn -0.8099 0.5829 0.0654
vn -0.1881 0.8847 0.4265
vn -0.9719 0.2337 -0.0277
vn -0.2590 0.8132 0.5211
vn -0.8851 0.4302 0.1779
vn -0.8301 0.0025 0.5576
vn -0.8157 -0.0010 0.5784
vn -0.8966 -0.3749 0.2356
vn -0.4662 0.3434 0.8153
vn -0.9603 0.2510 0.1219
vn -0.8577 0.3529 0.3740
usemtl Material
s 1
f 42/1/1 91/2/2 80/3/3 45/4/4
f 5/5/5 7/6/6 44/7/7 56/8/8
f 51/9/9 87/10/10 156/11/11 71/12/12
f 87/10/10 9/13/13 43/14/14 156/11/11
f 7/6/6 55/15/15 12/16/16 44/7/7
f 61/17/17 52/18/18 70/19/19 149/20/20
f 53/21/21 54/22/22 63/23/23 67/24/24
f 75/25/25 77/26/26 154/27/27 153/28/28
f 77/26/26 57/29/29 148/30/30 154/27/27
f 52/18/18 85/31/31 155/32/32 70/19/19
f 49/33/33 53/21/21 67/24/24 76/34/34
f 72/35/35 62/36/36 150/37/37 151/38/38
f 55/15/15 72/35/35 151/38/38 12/16/16
f 62/36/36 74/39/39 152/40/40 150/37/37
f 81/41/41 46/42/42 50/43/43 85/31/31
f 64/44/44 86/45/45 57/29/29 77/26/26
f 45/4/4 80/3/3 87/10/10 51/9/9
f 79/46/46 58/47/47 48/48/48 9/13/13
f 47/49/49 78/50/50 53/21/21 49/33/33
f 82/51/51 65/52/52 75/25/25 74/39/39
f 84/53/53 4/54/54 52/18/18 61/17/17
f 31/55/55 34/56/56 59/57/57 60/58/58
f 69/59/59 60/60/58 5/61/5 54/22/22
f 34/56/56 97/62/60 68/63/61 59/57/57
f 23/64/62 26/65/63 84/53/53 86/45/45
f 26/65/63 88/66/64 4/54/54 84/53/53
f 83/67/65 82/51/51 74/39/39 62/36/36
f 58/47/47 47/49/49 49/33/33 48/48/48
f 94/68/66 96/69/67 69/59/59 78/50/50
f 102/70/68 23/64/62 86/45/45 64/44/44
f 93/71/69 35/72/70 58/47/47 79/46/46
f 99/73/71 27/74/72 83/67/65 66/75/73
f 38/76/74 94/68/66 78/50/50 47/49/49
f 88/66/64 90/77/75 81/41/41 4/54/54
f 25/78/76 88/79/64 26/80/63
f 40/81/77 89/82/78 110/83/79 123/84/80
f 25/78/76 89/82/78 88/79/64
f 89/82/78 90/85/75 88/79/64
f 103/86/81 40/81/77 123/84/80 124/87/82
f 89/82/78 40/81/77 90/85/75
f 40/81/77 39/88/83 90/85/75
f 41/89/84 91/90/2 42/91/1
f 36/92/85 92/93/86 112/94/87 122/95/88
f 50/43/43 51/9/9 71/12/12 73/96/89
f 48/48/48 49/33/33 76/34/34 10/97/90
f 41/89/84 92/93/86 91/90/2
f 92/93/86 93/98/69 91/90/2
f 74/39/39 75/25/25 153/28/28 152/40/40
f 85/31/31 50/43/43 73/96/89 155/32/32
f 92/93/86 36/92/85 93/98/69
f 36/92/85 35/99/70 93/98/69
f 54/22/22 5/61/5 56/100/8 63/23/23
f 57/29/29 61/17/17 149/20/20 148/30/30
f 65/52/52 64/44/44 77/26/26 75/25/25
f 37/101/91 94/102/66 38/103/74
f 32/104/92 95/105/93 113/106/94 119/107/95
f 68/63/61 66/75/73 72/35/35 55/15/15
f 46/42/42 45/4/4 51/9/9 50/43/43
f 37/101/91 95/105/93 94/102/66
f 95/105/93 96/108/67 94/102/66
f 80/3/3 79/46/46 9/13/13 87/10/10
f 78/50/50 69/59/59 54/22/22 53/21/21
f 105/109/96 32/104/92 119/107/95 120/110/97
f 95/105/93 32/104/92 96/108/67
f 32/104/92 31/111/55 96/108/67
f 60/58/58 59/57/57 7/6/6 5/5/5
f 4/54/54 81/41/41 85/31/31 52/18/18
f 59/57/57 68/63/61 55/15/15 7/6/6
f 33/112/98 97/113/60 34/114/56
f 28/115/99 98/116/100 115/117/101 116/118/102
f 86/45/45 84/53/53 61/17/17 57/29/29
f 66/75/73 83/67/65 62/36/36 72/35/35
f 33/112/98 98/116/100 97/113/60
f 98/116/100 99/119/71 97/113/60
f 35/72/70 38/76/74 47/49/49 58/47/47
f 27/74/72 30/120/103 82/51/51 83/67/65
f 106/121/104 28/115/99 116/118/102 127/122/105
f 98/116/100 28/115/99 99/119/71
f 28/115/99 27/123/72 99/119/71
f 39/124/83 42/1/1 45/4/4 46/42/42
f 96/69/67 31/125/55 60/60/58 69/59/59
f 100/126/106 102/70/68 64/44/44 65/52/52
f 29/127/107 100/128/106 30/129/103
f 24/130/108 101/131/109 126/132/110 117/133/111
f 91/2/2 93/71/69 79/46/46 80/3/3
f 29/127/107 101/131/109 100/128/106
f 101/131/109 102/134/68 100/128/106
f 107/135/112 24/130/108 117/133/111 109/136/113
f 101/131/109 24/130/108 102/134/68
f 24/130/108 23/137/62 102/134/68
f 9/13/13 48/48/48 10/97/90 43/14/14
f 40/81/77 103/86/114 39/88/83
f 39/88/83 103/86/114 42/91/1
f 103/86/114 41/89/84 42/91/1
f 41/89/84 103/86/81 124/87/82 111/138/115
f 92/93/86 41/89/84 111/138/115 112/94/87
f 90/77/75 39/124/83 46/42/42 81/41/41
f 36/92/85 104/139/116 35/99/70
f 35/99/70 104/139/116 38/103/74
f 104/139/116 37/101/91 38/103/74
f 37/101/91 104/139/116 121/140/117 114/141/118
f 95/105/93 37/101/91 114/141/118 113/106/94
f 30/120/103 100/126/106 65/52/52 82/51/51
f 32/104/92 105/109/96 31/111/55
f 31/142/55 105/143/96 34/114/56
f 105/143/96 33/112/98 34/114/56
f 33/112/98 105/143/96 120/144/97 118/145/119
f 98/116/100 33/112/98 118/145/119 115/117/101
f 97/62/60 99/73/71 66/75/73 68/63/61
f 28/115/99 106/121/104 27/123/72
f 27/123/72 106/121/104 30/129/103
f 106/121/104 29/127/107 30/129/103
f 29/127/107 106/121/104 127/122/105 125/146/120
f 101/131/109 29/127/107 125/146/120 126/132/110
f 24/130/108 107/135/112 23/137/62
f 23/137/62 107/135/112 26/80/63
f 107/135/112 25/78/76 26/80/63
f 25/78/76 107/135/112 109/136/113 108/147/121
f 89/82/78 25/78/76 108/147/121 110/83/79
f 116/148/122 141/149/123 140/150/124 127/151/125
f 128/152/126 8/153/127 6/154/128 134/155/129
f 104/139/116 36/92/85 122/95/88 121/140/117
f 127/151/125 140/150/124 139/156/130 125/157/131
f 125/157/131 139/156/130 129/158/132 126/159/133
f 129/158/132 13/160/134 11/161/135 130/162/136
f 130/162/136 11/161/135 8/153/127 128/152/126
f 118/163/137 135/164/138 142/165/139 115/166/140
f 115/166/140 142/165/139 141/149/123 116/148/122
f 136/167/141 17/168/142 16/169/143 135/164/144
f 137/170/145 18/171/146 17/172/142 136/173/141
f 114/174/147 146/175/148 138/176/149 113/177/150
f 138/176/149 19/178/151 18/171/146 137/170/145
f 121/179/152 145/180/153 146/175/148 114/174/147
f 122/181/154 143/182/155 145/180/153 121/179/152
f 112/183/156 147/184/157 143/182/155 122/181/154
f 124/185/158 131/186/159 144/187/160 111/188/161
f 111/188/161 144/187/160 147/184/157 112/183/156
f 132/189/162 2/190/163 1/191/164 131/186/159
f 133/192/165 3/193/166 2/190/163 132/189/162
f 134/155/129 6/154/128 3/193/166 133/192/165
f 108/194/167 134/155/129 133/192/165 110/195/168
f 110/195/168 133/192/165 132/189/162 123/196/169
f 123/196/169 132/189/162 131/186/159 124/185/158
f 117/197/170 130/162/136 128/152/126 109/198/171
f 126/159/133 129/158/132 130/162/136 117/197/170
f 109/198/171 128/152/126 134/155/129 108/194/167
f 113/177/150 138/176/149 137/170/145 119/199/172
f 119/199/172 137/170/145 136/173/141 120/200/173
f 120/201/173 136/167/141 135/164/138 118/163/137
f 140/150/174 141/149/175 15/202/176 14/203/177
f 142/165/178 135/164/144 16/169/143
f 129/158/132 139/156/130 13/160/134
f 141/149/175 142/165/178 16/169/143 15/202/176
f 139/156/130 140/150/174 14/203/177 13/160/134
f 147/184/157 144/187/160 1/191/164 22/204/179
f 145/180/153 143/182/155 21/205/180 20/206/181
f 138/176/149 146/175/148 19/178/151
f 143/182/155 147/184/157 22/204/179 21/205/180
f 144/187/160 131/186/159 1/191/164
f 146/175/148 145/180/153 20/206/181 19/178/151
f 156/207/11 43/208/14 159/209/182 157/210/183
f 155/211/32 158/212/184 70/213/19
f 73/214/89 157/210/183 158/212/184 155/211/32
f 149/215/20 158/212/184 160/216/185 148/217/30
f 158/212/184 157/210/183 159/209/182 160/216/185
f 157/210/183 73/214/89 71/218/12
f 160/216/185 159/209/182 161/219/186 162/220/187
f 159/209/182 43/208/14 10/221/90 161/219/186
f 148/217/30 160/216/185 162/220/188 154/222/27
f 161/219/186 10/221/90 76/223/34 163/224/189
f 154/222/27 162/220/188 164/225/190 153/226/28
f 162/220/187 161/219/186 163/224/189 164/225/191
f 164/225/191 163/224/189 168/227/192 167/228/193
f 163/224/189 76/223/34 67/229/24 165/230/194
f 153/226/28 164/225/190 166/231/195 152/232/40
f 152/232/40 166/231/195 150/233/37
f 166/231/195 167/228/193 12/234/16 151/235/38
f 165/230/194 67/229/24 63/236/23
f 167/228/193 166/231/196 164/225/191
f 12/234/16 167/228/193 168/227/192 44/237/7
f 44/237/7 168/227/192 165/230/194 56/238/8
f 168/227/192 163/224/189 165/230/197
f 71/218/12 156/207/11 157/210/183
f 70/213/19 158/212/184 149/215/20
f 150/233/37 166/231/195 151/235/38
f 63/236/23 56/238/8 165/230/194
